<svg xmlns="http://www.w3.org/2000/svg" viewBox="0 0 97.63 96"><title>githubb</title><g id="Layer_2" data-name="Layer 2"><g id="Layer_1-2" data-name="Layer 1"><path d="M48.85,0A49.27,49.27,0,0,0,33.4,95.91c2.43.49,3.32-1.06,3.32-2.36,0-1.14-.08-5.05-.08-9.13-13.59,2.93-16.42-5.87-16.42-5.87-2.18-5.7-5.42-7.17-5.42-7.17-4.45-3,.32-3,.32-3,4.93.33,7.52,5.05,7.52,5.05,4.37,7.5,11.4,5.38,14.24,4.07A10.49,10.49,0,0,1,40,70.89c-10.84-1.14-22.24-5.38-22.24-24.28a19.27,19.27,0,0,1,5-13.2c-.49-1.22-2.18-6.27.49-13,0,0,4.13-1.3,13.43,5.05a46.57,46.57,0,0,1,24.43,0c9.3-6.36,13.43-5.05,13.43-5.05,2.67,6.76,1,11.82.49,13a18.9,18.9,0,0,1,5,13.2c0,18.91-11.4,23.06-22.32,24.28C59.45,72.44,61,75.37,61,80c0,6.6-.08,11.9-.08,13.53,0,1.3.89,2.85,3.32,2.36A49.27,49.27,0,0,0,48.85,0Z"/></g></g></svg>