<?xml version="1.0" standalone="no"?>
<!DOCTYPE svg PUBLIC "-//W3C//DTD SVG 20010904//EN"
 "http://www.w3.org/TR/2001/REC-SVG-20010904/DTD/svg10.dtd">
<svg version="1.0" xmlns="http://www.w3.org/2000/svg"
 width="700.000000pt" height="700.000000pt" viewBox="0 0 700.000000 700.000000"
 preserveAspectRatio="xMidYMid meet">
<metadata>
Created by potrace 1.11, written by Peter Selinger 2001-2013
</metadata>
<g transform="translate(0.000000,700.000000) scale(0.100000,-0.100000)"
fill="#000000" stroke="none">
<path d="M3278 6996 c-1 -2 -41 -6 -88 -10 -87 -7 -105 -9 -225 -27 -116 -18
-123 -19 -192 -35 -154 -34 -203 -47 -313 -81 -526 -161 -1038 -471 -1432
-867 -301 -302 -560 -675 -713 -1026 -25 -58 -50 -114 -55 -125 -45 -93 -150
-427 -176 -560 -2 -11 -11 -54 -19 -95 -8 -41 -17 -89 -19 -105 -3 -17 -7 -46
-11 -66 -6 -40 -10 -74 -22 -199 -15 -161 -8 -589 12 -711 2 -13 6 -46 10 -74
16 -127 34 -220 71 -370 24 -96 76 -269 93 -310 5 -11 26 -65 46 -120 52 -136
160 -357 239 -489 36 -60 66 -111 66 -113 0 -2 4 -9 10 -16 5 -7 46 -64 91
-126 276 -391 667 -751 1071 -985 l48 -28 11 29 c36 95 82 221 112 308 34 99
181 503 210 580 9 22 64 173 122 335 59 162 111 302 115 311 12 21 139 82 230
110 59 18 100 23 190 24 136 0 184 -6 271 -35 66 -22 161 -69 167 -82 2 -5 8
-8 14 -8 14 0 83 -54 138 -108 77 -76 228 -169 360 -220 261 -103 594 -102
858 3 l83 33 9 -22 c13 -30 130 -348 207 -561 214 -592 271 -740 287 -737 48
9 329 190 496 321 422 328 765 752 999 1235 115 236 222 543 267 761 4 17 31
163 39 205 7 40 21 141 32 240 8 70 10 517 2 595 -15 162 -21 220 -24 225 -2
3 -6 30 -10 60 -3 30 -10 71 -15 90 -5 19 -12 51 -15 70 -13 77 -66 272 -106
390 -373 1110 -1275 1962 -2404 2269 -106 29 -282 67 -355 76 -19 3 -46 7 -60
10 -13 2 -52 7 -86 11 -33 3 -74 8 -90 10 -33 5 -540 14 -546 10z m537 -399
c17 -3 53 -8 80 -11 55 -7 73 -10 190 -31 112 -21 109 -20 215 -48 265 -70
623 -222 798 -338 24 -16 45 -29 48 -29 22 0 402 -285 403 -303 1 -4 -192
-200 -428 -436 -280 -279 -453 -443 -497 -473 -96 -64 -200 -109 -294 -124
-14 -3 -31 -7 -39 -10 -19 -6 -198 -6 -236 1 -71 13 -151 37 -162 48 -10 10
-71 172 -213 567 -21 58 -48 131 -60 163 -44 116 -134 164 -243 128 -58 -20
-88 -65 -141 -211 -27 -74 -52 -139 -57 -144 -4 -4 -36 1 -71 12 -149 49 -343
67 -509 49 -119 -13 -259 -54 -385 -113 -325 -153 -578 -488 -647 -859 -20
-103 -21 -304 -3 -407 73 -408 333 -738 711 -903 42 -18 78 -35 81 -38 3 -3
-4 -27 -14 -54 -11 -26 -73 -195 -138 -374 -112 -310 -119 -327 -153 -350 -20
-13 -226 -214 -459 -446 l-424 -422 -24 27 c-65 72 -213 274 -282 385 -213
342 -359 720 -426 1113 -35 199 -41 283 -41 539 0 263 6 338 46 560 110 609
411 1183 856 1629 518 520 1172 829 1918 905 84 9 548 7 600 -2z m2072 -1104
c26 -32 50 -60 53 -63 26 -24 230 -323 230 -336 0 -3 8 -18 18 -32 95 -138
252 -513 316 -756 74 -281 101 -492 101 -806 0 -274 -9 -368 -55 -600 -132
-662 -447 -1225 -941 -1685 -104 -97 -290 -245 -307 -245 -4 0 -33 73 -65 163
-32 89 -82 227 -112 307 -29 80 -82 224 -117 321 l-64 177 40 43 c158 168 253
337 305 545 61 243 44 506 -47 733 -28 72 -86 186 -102 201 -3 3 -17 23 -31
45 -88 134 -261 286 -424 372 -123 65 -282 112 -435 129 -30 3 -58 9 -61 13
-5 4 -86 224 -136 366 -2 6 38 9 109 8 62 0 151 5 198 13 96 17 86 15 165 38
149 43 322 141 441 250 27 24 231 227 454 450 223 223 408 406 412 406 3 0 28
-26 55 -57z m-2937 -503 c41 -12 78 -25 82 -28 7 -7 -521 -1474 -535 -1489
-11 -10 -116 38 -191 87 -229 151 -361 397 -359 670 2 254 119 481 333 642 40
30 157 89 211 107 36 11 46 14 124 30 71 15 253 5 335 -19z m566 -403 c39 -26
75 -47 80 -47 30 -1 54 -51 144 -297 l98 -268 -71 -23 c-166 -52 -317 -144
-440 -266 -94 -93 -180 -154 -270 -192 -67 -29 -151 -54 -181 -54 -24 0 -23 3
59 225 37 99 77 209 90 245 30 85 249 685 282 773 l25 69 57 -60 c31 -32 88
-80 127 -105z m590 -1352 c69 -193 130 -359 135 -370 5 -11 67 -182 139 -379
96 -265 127 -363 119 -372 -6 -7 -27 -18 -47 -25 -20 -6 -42 -15 -47 -20 -6
-4 -54 -17 -108 -28 -263 -53 -517 19 -712 203 -152 143 -351 244 -575 293
-112 25 -407 23 -474 -3 -16 -6 -13 5 115 354 l52 142 56 1 c86 1 159 10 271
35 179 39 379 151 519 291 93 92 157 138 256 185 74 34 156 58 167 49 4 -4 64
-164 134 -356z m324 321 c440 -179 627 -700 402 -1118 -19 -37 -39 -65 -42
-63 -7 4 -18 32 -67 170 -13 39 -31 86 -38 105 -8 19 -32 87 -55 150 -22 63
-45 124 -49 135 -5 11 -32 85 -61 165 -28 80 -55 154 -60 165 -14 32 -110 302
-110 309 0 11 20 6 80 -18z m-2665 -2103 c-8 -21 -45 -122 -82 -224 -38 -102
-71 -188 -74 -190 -8 -5 -158 112 -158 123 -1 8 316 328 324 328 3 0 -2 -17
-10 -37z"/>
</g>
</svg>
