<?xml version="1.0" encoding="utf-8"?>
<!-- Generator: Adobe Illustrator 21.0.0, SVG Export Plug-In . SVG Version: 6.00 Build 0)  -->
<svg version="1.1" id="Layer_1" xmlns="http://www.w3.org/2000/svg" xmlns:xlink="http://www.w3.org/1999/xlink" x="0px" y="0px"
	 viewBox="0 0 900 847.6" style="enable-background:new 0 0 900 847.6;" xml:space="preserve">
<title>black personal logo</title>
<path d="M450,0C201.5,0,0,201.5,0,450c0,151.4,74.8,285.3,189.4,366.9c12.3,8.8,25.1,16.9,38.3,24.4l15.7-43.1l-0.3-0.1l1.7-4.7
	l55.6-152.6h-0.1l0.5-1.3c36.4-24.4,85.3-23.2,120.6,5.1c4.2,3.3,8.2,7,11.8,11l0.1,0.2c21.1,17.6,46.5,29.2,73.6,33.6
	c8.1,1.3,16.4,2,24.6,2c23.8,0,46.4-5.4,66.5-15.1l11.9,32.8c0.3,1,0.8,1.9,1.2,2.8l32.2,88.5l4.8,13.1l0.2-0.1l12.5,34.4
	c13.1-6.9,25.7-14.5,38-22.7C820.1,744.3,900,606.5,900,450C900,201.5,698.5,0,450,0z M50,450C50,229.1,229.1,50,450,50
	c101.3,0,193.8,37.7,264.3,99.7L613.8,250.2c-1.4,0.9-2.7,2-3.9,3.2c-0.5,0.5-1,1.1-1.5,1.7c-29.2,28.9-72,36.8-108.6,22.6
	l-35.6-97.7c-4.9-11.9-18.4-17.6-30.3-12.7c-5.7,2.3-10.3,6.9-12.7,12.6l-12.5,34.4c-58.8-23.2-128.3-8.3-172.1,42.2
	c-55.6,64-48.8,160.9,15.2,216.5c15.3,13.3,33,23.3,51.9,29.7l-35.4,97.1c-5.9,4.2-11.4,8.8-16.7,13.9c-0.6,0.5-1.2,1-1.7,1.6
	c-0.9,0.9-1.8,1.9-2.5,3l-0.2-0.2l-97,97C87.9,644.3,50,551.6,50,450z M615.7,595.9l-57.1-156.8c20.7,5.7,39.8,17.8,53.9,36.1
	C640.4,511.4,640.4,560.3,615.7,595.9z M321.3,454.3c-19.1-6.1-36.5-17.9-49.7-34.9c-34.5-44.7-26.1-108.9,18.6-143.3
	c29.9-23,68.4-26.9,101-13.7L321.3,454.3z M428.5,288.5c1.8,1.9,3.4,4,5.1,6.1c0.9,1.1,1.7,2.3,2.6,3.5c9.8,8.5,20.6,15.8,32.1,21.5
	l25.3,69.5c-22.3,5.7-43,16.3-60.6,31.2c-5.2,6.6-11.2,12.6-17.9,17.7c-14.6,11.2-31.3,17.9-48.3,20.3L428.5,288.5z M207,767.8
	c-7.3-5.6-14.4-11.4-21.3-17.5l43.5-43.5L207,767.8z M467.7,617.7c-4.2-3.3-8.2-7-11.8-11l-0.2-0.2c-21.1-17.6-46.5-29.2-73.6-33.5
	c-8.1-1.3-16.4-2-24.6-2c-11.3,0-22.4,1.2-33.2,3.6l23.4-64.2c1.6,0,3.2,0.1,4.7,0.1c9.6,0,19.1-0.9,28.5-2.7
	c25.8-4.8,50-16.3,70.1-33.3c5.2-6.6,11.2-12.6,17.9-17.7c12.8-9.9,27.3-16.3,42.1-19.3l69.2,190.2
	C544.7,647,500.2,643.7,467.7,617.7z M681.3,776.3l-45.7-125.8c30.4-28,49.4-68.2,49.4-112.8c0-82.4-64.9-149.6-146.3-153.3
	l-18.1-49.6c44.6,4.7,89.5-10.4,122.2-41.9c0.3-0.2,0.6-0.5,0.9-0.7l0.2-0.2c0.9-0.7,1.7-1.4,2.5-2.2c0.8-0.8,1.6-1.7,2.3-2.6
	l101.5-101.5c62.1,70.5,99.7,163,99.7,264.3C850,584.7,783.4,703.9,681.3,776.3z"/>
</svg>
