<?xml version="1.0" encoding="utf-8"?>
<!-- Generator: Adobe Illustrator 21.0.0, SVG Export Plug-In . SVG Version: 6.00 Build 0)  -->
<svg version="1.1" id="Livello_1" xmlns="http://www.w3.org/2000/svg" xmlns:xlink="http://www.w3.org/1999/xlink" x="0px" y="0px"
	 viewBox="0 0 594.9 533.3" style="enable-background:new 0 0 594.9 533.3;" xml:space="preserve">
<style type="text/css">
	.st0{fill:#038387;}
	.st1{fill:#37C6D0;}
	.st2{fill:#1A9BA1;}
	.st3{opacity:0.2;enable-background:new    ;}
	.st4{opacity:0.1;enable-background:new    ;}
	.st5{fill:url(#path7599_1_);}
	.st6{fill:#FFFFFF;}
</style>
<path id="path7576" class="st0" d="M411.9,48.7h158.4c13.6,0,24.6,11,24.6,24.6V460c0,13.6-11,24.6-24.6,24.6H411.9
	c-13.6,0-24.6-11-24.6-24.6V73.3C387.4,59.7,398.3,48.7,411.9,48.7L411.9,48.7z"/>
<path id="path7578" class="st0" d="M487.7,533.3H165.6c-14.3,0-25.9-11.4-25.9-25.4V400l203.9-44.4l170,44.4v107.9
	C513.6,522,502,533.3,487.7,533.3L487.7,533.3z"/>
<path id="path7580" class="st1" d="M486.9,0H166.4c-14.8,0-26.7,11.8-26.7,26.3v240.4l192.6,22.2l181.3-22.2V26.3
	C513.6,11.8,501.7,0,486.9,0z"/>
<path id="rect7582" class="st2" d="M139.7,266.7h373.9V400H139.7V266.7z"/>
<path id="path7584" class="st3" d="M313.5,141.7v286.1c0,1.4-0.1,2.9-0.4,4.4c-2,12.1-12.6,21-24.9,21H139.7V116.3h148.5
	c14,0,25.3,11.3,25.3,25.2V141.7L313.5,141.7z"/>
<path id="path7586" class="st4" d="M324.4,141.7V406c-0.2,19.9-16.2,36-36.2,36.2H139.7V105.5h148.5
	C308.1,105.6,324.3,121.7,324.4,141.7z"/>
<path id="path7588" class="st3" d="M313.5,141.7V406c0,14-11.3,25.3-25.2,25.3H139.7v-315h148.5c14,0,25.3,11.3,25.3,25.2V141.7
	L313.5,141.7z"/>
<path id="path7590" class="st4" d="M302.6,141.7V406c0,14-11.3,25.3-25.2,25.3H139.7v-315h137.6c14,0,25.3,11.3,25.3,25.2V141.7
	L302.6,141.7z"/>
<linearGradient id="path7599_1_" gradientUnits="userSpaceOnUse" x1="685.7301" y1="-846.1623" x2="1113.2052" y2="-1586.5704" gradientTransform="matrix(0.4643 0 0 -0.4643 -265.5121 -297.6826)">
	<stop  offset="0" style="stop-color:#058F92"/>
	<stop  offset="0.5" style="stop-color:#038489"/>
	<stop  offset="1" style="stop-color:#026D71"/>
</linearGradient>
<path id="path7599" class="st5" d="M25.3,114.9h253.4c14,0,25.3,11.3,25.3,25.3v253.4c0,14-11.3,25.3-25.3,25.3H25.3
	c-14,0-25.3-11.3-25.3-25.3V140.3C0,126.3,11.3,114.9,25.3,114.9z"/>
<path id="path7601" class="st6" d="M154.5,184.3c16-1.1,31.8,3.7,44.5,13.4c10.7,9.9,16.4,24.1,15.4,38.7
	c0.2,10.2-2.5,20.1-7.6,28.9c-5.2,8.5-12.7,15.4-21.7,19.7c-10.2,4.9-21.3,7.3-32.6,7h-30.8v58.9H90V184.3H154.5z M121.6,266.5h27.3
	c8.7,0.6,17.3-2,24-7.4c5.7-5.7,8.7-13.5,8.1-21.5c0-18.3-10.4-27.5-31.2-27.5h-28.2L121.6,266.5z"/>
<path id="rect7603" class="st3" d="M513.6,48.7h11v435.8h-11V48.7z"/>
<path id="rect7605" class="st4" d="M524.7,48.7h11v435.8h-11V48.7z"/>
</svg>
